<svg version="1.1" xmlns="http://www.w3.org/2000/svg" xmlns:xlink="http://www.w3.org/1999/xlink" width="800px" height="800px" viewBox="0,0,256,256"><g fill="none" fill-rule="none" stroke="none" stroke-width="1" stroke-linecap="butt" stroke-linejoin="miter" stroke-miterlimit="10" stroke-dasharray="" stroke-dashoffset="0" font-family="none" font-weight="none" font-size="none" text-anchor="none" style="mix-blend-mode: normal"><g transform="scale(10.66667,10.66667)"><rect x="0" y="0" width="24" height="24" fill-opacity="0" fill="#ffffff" fill-rule="nonzero"></rect><path d="M8.23129,2.24048c1.01209,-0.45353 1.88891,0.57097 1.57228,1.4605c-1.07433,3.0183 -0.41425,6.44642 1.81573,8.67552c2.2413,2.2405 5.6921,2.899 8.7202,1.8054c0.8811,-0.3182 1.8778,0.55 1.4422,1.538c-0.0129,0.0292 -0.0259,0.0583 -0.039,0.0875c-0.7753,1.7192 -2.0155,3.336 -3.62,4.42c-1.7102,1.1554 -3.727,1.7727 -5.7911,1.7727h-0.001c-2.40025,-0.0026 -4.7249,-0.8398 -6.57543,-2.368c-1.85054,-1.5282 -3.11172,-3.6524 -3.56724,-6.0084c-0.45552,-2.356 -0.07699,-4.79698 1.07067,-6.90453c1.08798,-1.99796 2.91748,-3.55059 4.94293,-4.46531z" fill="#323232" fill-rule="evenodd"></path></g></g></svg>