<svg version="1.1" xmlns="http://www.w3.org/2000/svg" xmlns:xlink="http://www.w3.org/1999/xlink" width="800px" height="800px" viewBox="0,0,256,256"><g fill="#373a36" fill-rule="none" stroke="none" stroke-width="1" stroke-linecap="butt" stroke-linejoin="miter" stroke-miterlimit="10" stroke-dasharray="" stroke-dashoffset="0" font-family="none" font-weight="none" font-size="none" text-anchor="none" style="mix-blend-mode: normal"><g transform="scale(10.66667,10.66667)"><path d="M18,12c0,3.3137 -2.6863,6 -6,6c-3.31371,0 -6,-2.6863 -6,-6c0,-3.31371 2.68629,-6 6,-6c3.3137,0 6,2.68629 6,6z" fill-rule="nonzero"></path><path d="M12,1.25c0.4142,0 0.75,0.33579 0.75,0.75v1c0,0.41421 -0.3358,0.75 -0.75,0.75c-0.4142,0 -0.75,-0.33579 -0.75,-0.75v-1c0,-0.41421 0.3358,-0.75 0.75,-0.75zM4.39861,4.39861c0.29289,-0.29289 0.76777,-0.29289 1.06066,0l0.39284,0.39284c0.29289,0.29289 0.29289,0.76776 0,1.06066c-0.2929,0.29289 -0.76777,0.29289 -1.06066,0l-0.39284,-0.39284c-0.29289,-0.29289 -0.29289,-0.76777 0,-1.06066zM19.6011,4.39887c0.2929,0.29289 0.2929,0.76777 0,1.06066l-0.3928,0.39284c-0.2929,0.29289 -0.7678,0.29289 -1.0607,0c-0.2929,-0.2929 -0.2929,-0.76777 0,-1.06066l0.3929,-0.39284c0.2929,-0.29289 0.7677,-0.29289 1.0606,0zM1.25,12c0,-0.4142 0.33579,-0.75 0.75,-0.75h1c0.41421,0 0.75,0.3358 0.75,0.75c0,0.4142 -0.33579,0.75 -0.75,0.75h-1c-0.41421,0 -0.75,-0.3358 -0.75,-0.75zM20.25,12c0,-0.4142 0.3358,-0.75 0.75,-0.75h1c0.4142,0 0.75,0.3358 0.75,0.75c0,0.4142 -0.3358,0.75 -0.75,0.75h-1c-0.4142,0 -0.75,-0.3358 -0.75,-0.75zM18.1476,18.1476c0.2929,-0.2929 0.7678,-0.2929 1.0607,0l0.3928,0.3929c0.2929,0.2929 0.2929,0.7677 0,1.0606c-0.2929,0.2929 -0.7677,0.2929 -1.0606,0l-0.3929,-0.3928c-0.2929,-0.2929 -0.2929,-0.7678 0,-1.0607zM5.85211,18.1479c0.29289,0.2929 0.29289,0.7678 0,1.0607l-0.39284,0.3928c-0.29289,0.2929 -0.76777,0.2929 -1.06066,0c-0.29289,-0.2929 -0.29289,-0.7678 0,-1.0607l0.39284,-0.3928c0.29289,-0.2929 0.76776,-0.2929 1.06066,0zM12,20.25c0.4142,0 0.75,0.3358 0.75,0.75v1c0,0.4142 -0.3358,0.75 -0.75,0.75c-0.4142,0 -0.75,-0.3358 -0.75,-0.75v-1c0,-0.4142 0.3358,-0.75 0.75,-0.75z" fill-rule="evenodd"></path></g></g></svg>