<svg version="1.1" xmlns="http://www.w3.org/2000/svg" xmlns:xlink="http://www.w3.org/1999/xlink" width="800px" height="800px" viewBox="0,0,256,256"><g fill="none" fill-rule="none" stroke="none" stroke-width="1" stroke-linecap="butt" stroke-linejoin="miter" stroke-miterlimit="10" stroke-dasharray="" stroke-dashoffset="0" font-family="none" font-weight="none" font-size="none" text-anchor="none" style="mix-blend-mode: normal"><g transform="scale(10.66667,10.66667)"><rect x="0" y="0" width="24" height="24" fill-opacity="0" fill="#ffffff" fill-rule="nonzero"></rect><path d="M8,12c0,-2.20914 1.79086,-4 4,-4c2.2091,0 4,1.79086 4,4c0,2.2091 -1.7909,4 -4,4c-2.20914,0 -4,-1.7909 -4,-4z" fill="#323232" fill-rule="evenodd"></path><path d="M12,2c0.5523,0 1,0.44772 1,1v2c0,0.55228 -0.4477,1 -1,1c-0.5523,0 -1,-0.44772 -1,-1v-2c0,-0.55228 0.4477,-1 1,-1z" fill="#323232" fill-rule="evenodd"></path><path d="M19.7071,4.29289c0.3905,0.39053 0.3905,1.02369 0,1.41422l-2,2c-0.3905,0.39052 -1.0237,0.39052 -1.4142,0c-0.3905,-0.39053 -0.3905,-1.02369 0,-1.41422l2,-2c0.3905,-0.39052 1.0237,-0.39052 1.4142,0z" fill="#323232" fill-rule="evenodd"></path><path d="M18,12c0,-0.5523 0.4477,-1 1,-1h2c0.5523,0 1,0.4477 1,1c0,0.5523 -0.4477,1 -1,1h-2c-0.5523,0 -1,-0.4477 -1,-1z" fill="#323232" fill-rule="evenodd"></path><path d="M16.2929,16.2929c0.3905,-0.3905 1.0237,-0.3905 1.4142,0l2,2c0.3905,0.3905 0.3905,1.0237 0,1.4142c-0.3905,0.3905 -1.0237,0.3905 -1.4142,0l-2,-2c-0.3905,-0.3905 -0.3905,-1.0237 0,-1.4142z" fill="#323232" fill-rule="evenodd"></path><path d="M12,18c0.5523,0 1,0.4477 1,1v2c0,0.5523 -0.4477,1 -1,1c-0.5523,0 -1,-0.4477 -1,-1v-2c0,-0.5523 0.4477,-1 1,-1z" fill="#323232" fill-rule="evenodd"></path><path d="M7.70711,16.2929c0.39052,0.3905 0.39052,1.0237 0,1.4142l-2,2c-0.39053,0.3905 -1.02369,0.3905 -1.41422,0c-0.39052,-0.3905 -0.39052,-1.0237 0,-1.4142l2,-2c0.39053,-0.3905 1.02369,-0.3905 1.41422,0z" fill="#323232" fill-rule="evenodd"></path><path d="M2,12c0,-0.5523 0.44772,-1 1,-1h2c0.55228,0 1,0.4477 1,1c0,0.5523 -0.44772,1 -1,1h-2c-0.55228,0 -1,-0.4477 -1,-1z" fill="#323232" fill-rule="evenodd"></path><path d="M4.29289,4.29289c0.39053,-0.39052 1.02369,-0.39052 1.41422,0l2,2c0.39052,0.39053 0.39052,1.02369 0,1.41422c-0.39053,0.39052 -1.02369,0.39052 -1.41422,0l-2,-2c-0.39052,-0.39053 -0.39052,-1.02369 0,-1.41422z" fill="#323232" fill-rule="evenodd"></path></g></g></svg>